<?xml version="1.0" encoding="UTF-8" standalone="no"?><!DOCTYPE svg PUBLIC "-//W3C//DTD SVG 1.1//EN" "http://www.w3.org/Graphics/SVG/1.1/DTD/svg11.dtd"><svg width="100%" height="100%" viewBox="0 0 67 67" version="1.1" xmlns="http://www.w3.org/2000/svg" xmlns:xlink="http://www.w3.org/1999/xlink" xml:space="preserve" xmlns:serif="http://www.serif.com/" style="fill-rule:evenodd;clip-rule:evenodd;stroke-linejoin:round;stroke-miterlimit:2;"><path d="M33.333,4.167c5.715,-0 10.417,4.702 10.417,10.416l0,2.084l-20.833,-0l-0,-2.084c-0,-5.714 4.702,-10.416 10.416,-10.416Zm14.584,12.5l-0,-2.084c-0,-8 -6.583,-14.583 -14.584,-14.583c-8,-0 -14.583,6.583 -14.583,14.583l0,2.084l-14.583,-0l-0,41.666c-0,4.572 3.761,8.334 8.333,8.334l41.667,-0c4.571,-0 8.333,-3.762 8.333,-8.334l0,-41.666l-14.583,-0Zm-39.584,4.166l50,0l0,37.5c0,2.286 -1.881,4.167 -4.166,4.167l-41.667,0c-2.286,0 -4.167,-1.881 -4.167,-4.167l0,-37.5Z" style="fill:#fff;fill-rule:nonzero;"/></svg>