<?xml version="1.0" encoding="UTF-8" standalone="no"?><!DOCTYPE svg PUBLIC "-//W3C//DTD SVG 1.1//EN" "http://www.w3.org/Graphics/SVG/1.1/DTD/svg11.dtd"><svg width="100%" height="100%" viewBox="0 0 2084 2084" version="1.1" xmlns="http://www.w3.org/2000/svg" xmlns:xlink="http://www.w3.org/1999/xlink" xml:space="preserve" xmlns:serif="http://www.serif.com/" style="fill-rule:evenodd;clip-rule:evenodd;stroke-linejoin:round;stroke-miterlimit:2;"><g><clipPath id="_clip1"><rect x="618.381" y="144.444" width="845.833" height="1033.33"/></clipPath><g clip-path="url(#_clip1)"><path d="M1390.15,734.809l-0,-298.871c1.258,-11.871 3.862,-23.438 7.812,-34.701c3.928,-11.241 9.115,-21.918 15.517,-31.988c6.401,-10.048 13.867,-19.249 22.395,-27.582c8.529,-8.334 17.904,-15.582 28.125,-21.745l-66.558,-55.664l-8.159,-6.88l-39.28,-32.855l-24.913,-21.485l-66.537,-55.664l-13.737,11.827l-92.317,77.127l-39.714,33.312l-71.484,61.87l-72.353,-60.373l-39.713,-33.29l-92.318,-77.148l-13.737,-11.806l-66.558,55.643l-24.892,21.484l-39.301,32.878l-8.138,6.879l-66.558,55.642c10.2,6.163 19.575,13.412 28.103,21.745c8.529,8.333 16.016,17.535 22.418,27.604c6.402,10.048 11.567,20.725 15.516,31.988c3.95,11.263 6.532,22.83 7.813,34.679l-0,298.654c-0.087,10.005 -1.15,19.879 -3.147,29.666c-2.018,9.788 -4.969,19.293 -8.832,28.494c-3.863,9.223 -8.572,17.969 -14.15,26.259c-5.577,8.29 -11.892,15.972 -18.967,23.025l45.096,37.804l76.627,64.475l67.839,56.922l0,-687.543l25.977,-21.484l106.922,87.652l0,598.394c0,9.027 -1.15,17.903 -3.472,26.627c-2.344,8.724 -5.751,17.014 -10.243,24.827c-4.514,7.834 -9.961,14.93 -16.319,21.332c-6.381,6.402 -13.477,11.849 -21.268,16.385l51.302,42.968l72.353,60.591l72.33,-60.591l51.324,-42.968c-7.812,-4.536 -14.909,-9.983 -21.289,-16.385c-6.358,-6.402 -11.805,-13.498 -16.298,-21.332c-4.513,-7.813 -7.921,-16.103 -10.264,-24.827c-2.322,-8.724 -3.473,-17.6 -3.473,-26.627l0,-598.394l106.055,-88.737l25.977,21.484l-0,687.348l67.838,-56.944l76.65,-64.454l45.073,-37.825c-7.074,-7.053 -13.389,-14.714 -18.967,-23.004c-5.555,-8.289 -10.286,-17.057 -14.149,-26.258c-3.863,-9.223 -6.793,-18.707 -8.811,-28.494c-2.018,-9.787 -3.06,-19.683 -3.146,-29.666Z" style="fill:#5e17eb;fill-rule:nonzero;"/></g></g><g><g><g><path d="M210.178,1195.72l131.163,0c35.243,0 63.976,9.419 86.198,28.212c22.222,18.815 33.333,45.703 33.333,80.643c0,26.974 -6.749,49.566 -20.225,67.795c-13.499,18.229 -31.771,31.054 -54.861,38.455l126.215,151.562l-106.25,0l-111.979,-144.878l-0,144.878l-83.594,0l-0,-366.667Zm83.594,162.674l9.722,0c7.747,0 14.279,-0.13 19.618,-0.434c5.317,-0.282 11.372,-1.324 18.142,-3.125c6.815,-1.78 12.327,-4.297 16.493,-7.552c4.167,-3.234 7.726,-7.943 10.677,-14.149c2.952,-6.25 4.428,-13.824 4.428,-22.743c-0,-8.898 -1.476,-16.45 -4.428,-22.657c-2.951,-6.25 -6.51,-10.981 -10.677,-14.236c-4.166,-3.233 -9.678,-5.751 -16.493,-7.552c-6.77,-1.779 -12.825,-2.821 -18.142,-3.125c-5.339,-0.282 -11.871,-0.434 -19.618,-0.434l-9.722,0l-0,96.007Z" style="fill:#fff;fill-rule:nonzero;"/></g></g></g><g><g><g><path d="M714.567,1195.72l148.004,366.667l-89.757,0l-27.084,-73.351l-139.583,0l-27.083,73.351l-89.757,0l148.003,-366.667l77.257,0Zm2.691,219.966l-40.885,-106.598l-0.868,0l-40.886,106.598l82.639,-0Z" style="fill:#fff;fill-rule:nonzero;"/></g></g></g><g><g><g><path d="M1184.77,1195.72l-181.771,293.316l169.792,0l-0,73.351l-315.538,0l181.336,-293.316l-155.555,0l-0,-73.351l301.736,0Z" style="fill:#fff;fill-rule:nonzero;"/></g></g></g><g><g><g><path d="M1202.12,1378.79c0,-52.994 18.056,-97.873 54.167,-134.635c36.154,-36.741 79.731,-55.122 130.729,-55.122c51.215,0 94.727,18.316 130.556,54.948c35.872,36.589 53.819,81.511 53.819,134.809c0,53.646 -17.621,98.785 -52.865,135.417c-35.243,36.589 -79.079,54.861 -131.51,54.861c-53.646,0 -97.895,-18.142 -132.726,-54.427c-34.787,-36.328 -52.17,-81.619 -52.17,-135.851Zm90.191,0c0,19.271 2.952,36.849 8.854,52.691c5.947,15.864 16.341,29.297 31.164,40.278c14.8,10.938 33.029,16.406 54.687,16.406c31.076,0 54.536,-10.633 70.399,-31.944c15.842,-21.354 23.785,-47.157 23.785,-77.431c0,-29.904 -8.073,-55.599 -24.219,-77.083c-16.146,-21.463 -39.475,-32.205 -69.965,-32.205c-30.273,0 -53.624,10.742 -70.052,32.205c-16.45,21.484 -24.653,47.179 -24.653,77.083Z" style="fill:#fff;fill-rule:nonzero;"/></g></g></g><g><g><g><path d="M1608.26,1195.72l131.164,0c35.243,0 63.975,9.419 86.198,28.212c22.222,18.815 33.333,45.703 33.333,80.643c-0,26.974 -6.749,49.566 -20.226,67.795c-13.498,18.229 -31.771,31.054 -54.861,38.455l126.215,151.562l-106.25,0l-111.979,-144.878l0,144.878l-83.594,0l0,-366.667Zm83.594,162.674l9.722,0c7.748,0 14.28,-0.13 19.618,-0.434c5.317,-0.282 11.372,-1.324 18.143,-3.125c6.814,-1.78 12.326,-4.297 16.493,-7.552c4.167,-3.234 7.726,-7.943 10.677,-14.149c2.951,-6.25 4.427,-13.824 4.427,-22.743c0,-8.898 -1.476,-16.45 -4.427,-22.657c-2.951,-6.25 -6.51,-10.981 -10.677,-14.236c-4.167,-3.233 -9.679,-5.751 -16.493,-7.552c-6.771,-1.779 -12.826,-2.821 -18.143,-3.125c-5.338,-0.282 -11.87,-0.434 -19.618,-0.434l-9.722,0l0,96.007Z" style="fill:#fff;fill-rule:nonzero;"/></g></g></g><g><g><g><path d="M664.128,1836.11l-14.757,0c-2.388,0 -3.559,-1.085 -3.559,-3.299l0.26,-19.184c-16.319,16.276 -38.064,24.393 -65.191,24.393c-27.083,-0 -49.718,-9.419 -67.882,-28.299c-18.121,-18.858 -27.17,-43.685 -27.17,-74.479c-0,-20.53 4.557,-38.563 13.715,-54.08c9.137,-15.56 20.79,-27.127 34.983,-34.722c14.171,-7.639 29.514,-11.458 46.007,-11.458c28.298,-0 48.654,8.81 61.111,26.388l-0.26,-21.354c-0.413,-2.257 0.694,-3.385 3.298,-3.385l15.538,-0c2.431,-0 3.646,1.128 3.646,3.385l0,57.205c0,2.214 -1.215,3.299 -3.646,3.299l-17.448,-0c-2.257,-0 -3.385,-1.085 -3.385,-3.299l0,-3.298c0,-8.16 -5.621,-16.19 -16.84,-24.132c-11.176,-7.986 -25.478,-11.98 -42.882,-11.98c-17.426,0 -33.138,7.184 -47.136,21.528c-13.954,14.367 -20.92,33.507 -20.92,57.466c0,23.958 7.031,42.947 21.094,56.944c14.106,14.019 29.861,21.007 47.222,21.007c17.405,-0 31.163,-2.778 41.233,-8.333c10.113,-5.556 17.665,-12.153 22.656,-19.792l0,-21.615l-51.649,0c-2.214,0 -3.299,-1.215 -3.299,-3.646l0,-12.76c0,-2.192 1.085,-3.299 3.299,-3.299l71.962,0c2.191,0 3.298,1.107 3.298,3.299l0,84.201c0,2.214 -1.107,3.299 -3.298,3.299Z" style="fill:#fff;fill-rule:nonzero;"/></g></g></g><g><g><g><path d="M827.724,1836.11l-24.219,0c-7.943,0 -11.892,-3.863 -11.892,-11.632l-0,-14.236l-0.608,0c-13.498,18.75 -31.554,28.125 -54.167,28.125c-13.324,0 -24.218,-3.472 -32.725,-10.417c-8.507,-6.944 -12.761,-16.341 -12.761,-28.211c0,-15.213 6.598,-26.389 19.792,-33.507c13.238,-7.118 31.445,-10.677 54.601,-10.677l23.35,-0l0,-3.299c0,-23.134 -12.044,-34.722 -36.111,-34.722c-11.284,-0 -19.444,1.085 -24.479,3.211c-4.991,2.084 -8.55,3.798 -10.677,5.122c-2.148,1.28 -3.776,2.3 -4.861,3.038c-2.778,2.214 -4.818,2.387 -6.077,0.521l-7.812,-9.722c-1.28,-1.432 -1.085,-2.908 0.608,-4.427c3.125,-4.037 9.592,-8.03 19.444,-11.979c9.766,-3.863 21.354,-5.816 34.722,-5.816c38.889,-0 58.334,18.533 58.334,55.555l-0,64.497l15.538,-0c2.192,-0 3.298,1.106 3.298,3.298l0,11.979c0,2.214 -1.106,3.299 -3.298,3.299Zm-38.629,-63.889l-21.961,0c-10.721,0 -19.597,0.564 -26.65,1.649c-7.074,1.107 -13.064,3.516 -17.969,7.205c-4.861,3.711 -7.291,8.811 -7.291,15.278c-0,6.489 2.626,11.806 7.899,15.972c5.252,4.167 12.153,6.25 20.66,6.25c17.99,0 33.094,-7.942 45.312,-23.871l0,-22.483Z" style="fill:#fff;fill-rule:nonzero;"/></g></g></g><g><g><g><path d="M1086.29,1836.11l-26.389,0c-4.297,0 -7.422,-0.868 -9.375,-2.604c-1.91,-1.78 -2.865,-4.796 -2.865,-9.028l0,-73.09c0,-10.764 -2.561,-19.097 -7.639,-25c-5.1,-5.903 -12.652,-8.854 -22.656,-8.854c-14.583,-0 -26.042,6.38 -34.375,19.097c1.085,3.364 1.649,7.075 1.649,11.111l0,69.792l15.539,-0c2.191,-0 3.298,1.106 3.298,3.298l0,11.979c0,2.214 -1.107,3.299 -3.298,3.299l-53.039,0c-2.43,0 -3.645,-1.085 -3.645,-3.299l-0,-11.979c-0,-2.192 1.215,-3.298 3.645,-3.298l14.67,-0l0,-66.146c0,-10.764 -2.604,-19.097 -7.812,-25c-5.165,-5.903 -12.739,-8.854 -22.743,-8.854c-7.596,-0 -13.368,1.172 -17.361,3.472c-3.95,2.322 -6.945,4.34 -9.028,6.076c-2.04,1.736 -3.689,3.451 -4.948,5.122c-2.257,2.951 -4.123,6.033 -5.555,9.201l-0,76.129l13.628,-0c2.192,-0 3.299,1.106 3.299,3.298l-0,11.979c-0,2.214 -1.107,3.299 -3.299,3.299l-51.996,0c-2.388,0 -3.56,-1.085 -3.56,-3.299l0,-11.979c0,-2.192 1.172,-3.298 3.56,-3.298l15.277,-0l0,-99.479l-15.277,-0c-2.388,-0 -3.56,-1.086 -3.56,-3.299l0,-11.979c0,-2.192 1.172,-3.299 3.56,-3.299l27.256,0c3.125,0 5.382,0.608 6.771,1.823c1.389,1.172 2.084,3.342 2.084,6.51l-0.521,13.889l0.781,0c9.657,-16.145 24.609,-24.218 44.879,-24.218c20.312,-0 34.158,7.704 41.579,23.09c10.526,-15.386 25.434,-23.09 44.705,-23.09c14.801,-0 26.324,4.383 34.549,13.107c8.268,8.681 12.413,20.443 12.413,35.243l0.26,71.702l15.539,-0c2.43,-0 3.645,1.106 3.645,3.298l0,11.979c0,2.214 -1.215,3.299 -3.645,3.299Z" style="fill:#fff;fill-rule:nonzero;"/></g></g></g><g><g><g><path d="M1167.61,1836.11l-53.038,0c-2.388,0 -3.559,-1.085 -3.559,-3.299l-0,-11.979c-0,-2.192 1.171,-3.298 3.559,-3.298l15.277,-0l0,-99.479l-15.277,-0c-2.388,-0 -3.559,-1.086 -3.559,-3.299l-0,-11.979c-0,-2.192 1.171,-3.299 3.559,-3.299l34.982,0c2.257,0 3.386,1.107 3.386,3.299l-0,114.757l14.67,-0c2.43,-0 3.646,1.106 3.646,3.298l-0,11.979c-0,2.214 -1.216,3.299 -3.646,3.299Zm-15.712,-177.778c3.06,3.125 4.601,6.836 4.601,11.111c-0,4.297 -1.541,7.9 -4.601,10.851c-3.016,2.951 -6.662,4.427 -10.937,4.427c-4.232,0 -7.878,-1.476 -10.938,-4.427c-3.082,-2.951 -4.601,-6.554 -4.601,-10.851c0,-4.275 1.519,-7.986 4.601,-11.111c3.06,-3.125 6.706,-4.687 10.938,-4.687c4.275,-0 7.921,1.562 10.937,4.687Z" style="fill:#fff;fill-rule:nonzero;"/></g></g></g><g><g><g><path d="M1340.13,1836.11l-26.389,0c-7.986,0 -11.979,-3.863 -11.979,-11.632l-0,-73.09c-0,-10.764 -2.604,-19.097 -7.813,-25c-5.165,-5.903 -12.738,-8.854 -22.743,-8.854c-14.236,-0 -25.347,5.816 -33.333,17.448c-0.933,1.106 -2.127,3.168 -3.559,6.163l-0,76.389l14.67,-0c2.431,-0 3.646,1.106 3.646,3.298l-0,11.979c-0,2.214 -1.215,3.299 -3.646,3.299l-53.038,0c-2.387,0 -3.559,-1.085 -3.559,-3.299l-0,-11.979c-0,-2.192 1.172,-3.298 3.559,-3.298l15.278,-0l-0,-99.479l-15.278,-0c-2.387,-0 -3.559,-1.086 -3.559,-3.299l-0,-11.979c-0,-2.192 1.172,-3.299 3.559,-3.299l32.552,0c2.365,0 3.559,1.107 3.559,3.299l-0.521,18.923l0.781,0c9.658,-16.145 24.588,-24.218 44.792,-24.218c14.8,-0 26.389,4.383 34.722,13.107c8.334,8.681 12.587,20.443 12.761,35.243l-0,71.702l15.538,-0c2.43,-0 3.646,1.106 3.646,3.298l-0,11.979c-0,2.214 -1.216,3.299 -3.646,3.299Z" style="fill:#fff;fill-rule:nonzero;"/></g></g></g><g><g><g><path d="M1428.75,1901.13c-9.266,0 -16.276,-0.672 -21.007,-1.996c-4.752,-1.28 -8.572,-2.431 -11.458,-3.472c-2.843,-0.999 -5.274,-1.997 -7.292,-3.039c-2.04,-0.998 -3.971,-2.061 -5.816,-3.211c-8.16,-5.339 -11.241,-9.202 -9.201,-11.632l7.205,-10.243c1.15,-1.693 2.734,-1.802 4.774,-0.348c0.174,0 0.738,0.391 1.736,1.216c1.042,0.868 2.04,1.671 3.038,2.43c1.042,0.738 2.431,1.606 4.167,2.604c1.779,1.042 3.776,1.954 5.989,2.778c2.257,0.868 4.688,1.671 7.292,2.431c6.077,1.606 12.804,2.43 20.226,2.43c13.368,0 24.067,-3.19 32.118,-9.548c8.029,-6.38 12.066,-16.407 12.066,-30.122l-0,-31.684c-3.299,7.769 -8.811,14.41 -16.493,19.965c-7.704,5.556 -17.274,8.334 -28.733,8.334c-18.923,-0 -34.093,-6.554 -45.486,-19.705c-11.35,-13.129 -17.014,-30.143 -17.014,-51.042c0,-20.942 5.773,-37.804 17.361,-50.607c11.567,-12.782 26.606,-19.184 45.139,-19.184c11.459,-0 21.116,2.669 28.993,7.986c7.856,5.273 13.564,11.697 17.101,19.271l0.521,-0l-0.261,-21.962c0,-2.192 1.085,-3.299 3.299,-3.299l32.812,0c2.192,0 3.299,1.107 3.299,3.299l0,11.979c0,2.213 -1.107,3.299 -3.299,3.299l-15.017,-0l0,123.35c0,19.792 -6.076,34.679 -18.229,44.705c-12.109,10.004 -28.038,15.017 -47.83,15.017Zm-41.146,-133.507c0,15.278 4.08,27.605 12.24,36.98c8.16,9.331 18.337,13.975 30.555,13.975c12.197,0 22.331,-4.622 30.382,-13.889c8.03,-9.244 12.066,-21.636 12.066,-37.152c0,-15.56 -4.036,-27.887 -12.066,-36.979c-8.051,-9.072 -18.185,-13.629 -30.382,-13.629c-12.218,0 -22.395,4.644 -30.555,13.889c-8.16,9.266 -12.24,21.528 -12.24,36.805Z" style="fill:#fff;fill-rule:nonzero;"/></g></g></g></svg>