<?xml version="1.0" encoding="UTF-8" standalone="no"?><!DOCTYPE svg PUBLIC "-//W3C//DTD SVG 1.1//EN" "http://www.w3.org/Graphics/SVG/1.1/DTD/svg11.dtd"><svg width="100%" height="100%" viewBox="0 0 1305 988" version="1.1" xmlns="http://www.w3.org/2000/svg" xmlns:xlink="http://www.w3.org/1999/xlink" xml:space="preserve" xmlns:serif="http://www.serif.com/" style="fill-rule:evenodd;clip-rule:evenodd;stroke-linejoin:round;stroke-miterlimit:2;"><g><g><path d="M315.971,614.583c-26.042,17.363 -17.358,50.346 38.196,65.971c57.291,19.1 119.791,24.309 180.554,13.892c3.475,-0 6.946,-1.738 8.683,-1.738l0,-59.029l-59.029,19.1c-22.571,6.942 -45.137,8.679 -67.708,3.471c-17.363,-5.208 -13.888,-15.625 6.945,-24.304l119.792,-41.667l0,-64.237l-166.666,57.291c-20.834,6.946 -41.667,17.363 -60.767,31.25Zm402.779,-260.416l0,168.404c71.179,34.721 126.738,-0 126.738,-90.279c-0,-92.013 -32.988,-133.68 -128.476,-166.667c-50.345,-17.363 -102.429,-32.988 -154.512,-43.404l0,501.737l121.529,36.459l0,-421.875c0,-19.096 0,-32.988 13.888,-27.78c19.096,5.209 20.833,24.309 20.833,43.405Zm225.696,220.487c-50.35,-17.362 -104.167,-24.308 -156.25,-19.1c-27.779,1.738 -53.821,8.683 -78.125,17.363l-5.208,1.737l-0,67.708l112.845,-41.666c22.571,-6.946 45.138,-8.683 67.709,-3.475c17.362,5.208 13.887,15.625 -6.946,24.308l-173.609,64.234l0,65.975l239.584,-88.542c17.358,-6.946 32.983,-15.625 46.875,-29.517c12.15,-17.358 6.941,-41.666 -46.875,-59.025Z" style="fill-rule:nonzero;"/></g></g></svg>