<?xml version="1.0" encoding="UTF-8" standalone="no"?><!DOCTYPE svg PUBLIC "-//W3C//DTD SVG 1.1//EN" "http://www.w3.org/Graphics/SVG/1.1/DTD/svg11.dtd"><svg width="100%" height="100%" viewBox="0 0 3334 3334" version="1.1" xmlns="http://www.w3.org/2000/svg" xmlns:xlink="http://www.w3.org/1999/xlink" xml:space="preserve" xmlns:serif="http://www.serif.com/" style="fill-rule:evenodd;clip-rule:evenodd;stroke-linejoin:round;stroke-miterlimit:2;"><path d="M2532.9,2266.71c181.661,-237.761 290.845,-533.311 290.845,-854.84c0,-778.601 -633.271,-1411.87 -1411.87,-1411.87c-778.601,0 -1411.87,633.271 -1411.87,1411.87c0,778.598 633.271,1411.87 1411.87,1411.87c321.529,0 617.269,-109.184 855.027,-290.845l800.25,800.437l266.184,-266.184l-800.437,-800.437Zm-1121.02,180.531c-570.962,0 -1035.37,-464.601 -1035.37,-1035.37c0,-570.773 464.412,-1035.37 1035.37,-1035.37c570.96,0 1035.37,464.601 1035.37,1035.37c0,570.772 -464.411,1035.37 -1035.37,1035.37Z" style="fill:#808080;"/></svg>